<svg width="143" height="143" viewBox="0 0 143 143" fill="none" xmlns="http://www.w3.org/2000/svg">
<path fill-rule="evenodd" clip-rule="evenodd" d="M49.9462 25.4576C46.6449 24.573 43.2515 26.5321 42.367 29.8334L25.4443 92.9895C24.5598 96.2908 26.5189 99.6842 29.8202 100.569L92.9763 117.491C96.2776 118.376 99.6709 116.417 100.555 113.115L117.478 49.9594C118.363 46.6581 116.404 43.2648 113.102 42.3802L49.9462 25.4576ZM32.9597 27.3128C35.2364 18.816 43.97 13.7736 52.4668 16.0503L115.623 32.9729C124.12 35.2497 129.162 43.9833 126.885 52.4801L109.963 115.636C107.686 124.133 98.9524 129.175 90.4556 126.899L27.2995 109.976C18.8027 107.699 13.7604 98.9656 16.0371 90.4689L32.9597 27.3128Z" fill="#007DB8"/>
<path fill-rule="evenodd" clip-rule="evenodd" d="M63.6879 49.1883C61.0901 48.4922 58.42 50.0338 57.7239 52.6316L50.1882 80.7554C49.4921 83.3531 51.0337 86.0233 53.6315 86.7193L81.7553 94.2551C84.353 94.9512 87.0232 93.4095 87.7192 90.8118L95.255 62.688C95.9511 60.0902 94.4094 57.4201 91.8117 56.724L63.6879 49.1883ZM48.3167 50.1109C50.4048 42.3177 58.4153 37.6928 66.2086 39.781L94.3324 47.3168C102.126 49.4049 106.75 57.4154 104.662 65.2087L97.1265 93.3325C95.0383 101.126 87.0278 105.751 79.2346 103.662L51.1108 96.1266C43.3176 94.0384 38.6927 86.0279 40.7809 78.2347L48.3167 50.1109Z" fill="#007DB8"/>
<path fill-rule="evenodd" clip-rule="evenodd" d="M55.8475 16.9562L58.3682 7.54895L67.7754 10.0696L65.2548 19.4769L55.8475 16.9562Z" fill="#007DB8"/>
<path fill-rule="evenodd" clip-rule="evenodd" d="M79.3167 23.2448L81.8374 13.8375L91.2447 16.3582L88.724 25.7655L79.3167 23.2448Z" fill="#007DB8"/>
<path fill-rule="evenodd" clip-rule="evenodd" d="M102.786 29.5334L105.307 20.1261L114.714 22.6468L112.193 32.054L102.786 29.5334Z" fill="#007DB8"/>
<path fill-rule="evenodd" clip-rule="evenodd" d="M28.1727 120.24L30.6934 110.833L40.1006 113.354L37.58 122.761L28.1727 120.24Z" fill="#007DB8"/>
<path fill-rule="evenodd" clip-rule="evenodd" d="M51.6419 126.529L54.1626 117.121L63.5699 119.642L61.0492 129.049L51.6419 126.529Z" fill="#007DB8"/>
<path fill-rule="evenodd" clip-rule="evenodd" d="M75.1112 132.817L77.6318 123.41L87.0391 125.931L84.5184 135.338L75.1112 132.817Z" fill="#007DB8"/>
<path fill-rule="evenodd" clip-rule="evenodd" d="M16.9559 87.039L7.54867 84.5183L10.0693 75.1111L19.4766 77.6318L16.9559 87.039Z" fill="#007DB8"/>
<path fill-rule="evenodd" clip-rule="evenodd" d="M23.2445 63.5699L13.8372 61.0492L16.3579 51.642L25.7652 54.1626L23.2445 63.5699Z" fill="#007DB8"/>
<path fill-rule="evenodd" clip-rule="evenodd" d="M29.5331 40.1008L20.1258 37.5801L22.6465 28.1729L32.0538 30.6935L29.5331 40.1008Z" fill="#007DB8"/>
<path fill-rule="evenodd" clip-rule="evenodd" d="M120.24 114.714L110.833 112.193L113.354 102.786L122.761 105.307L120.24 114.714Z" fill="#007DB8"/>
<path fill-rule="evenodd" clip-rule="evenodd" d="M126.529 91.2448L117.121 88.7242L119.642 79.3169L129.049 81.8376L126.529 91.2448Z" fill="#007DB8"/>
<path fill-rule="evenodd" clip-rule="evenodd" d="M132.817 67.7756L123.41 65.2549L125.931 55.8477L135.338 58.3683L132.817 67.7756Z" fill="#007DB8"/>
</svg>
