<svg width="128" height="119" viewBox="0 0 128 119" fill="none" xmlns="http://www.w3.org/2000/svg">
<path d="M112.244 8.65974C104.012 8.65974 97.2568 15.4145 97.2568 23.6468C97.2568 24.9133 97.4679 25.9688 97.6789 27.0242L83.5362 36.3119C79.1034 31.2459 72.7709 27.8685 65.3829 27.8685C59.8946 27.8685 54.8286 29.7683 50.818 32.9346L27.5986 16.8921C29.0762 10.7706 25.9099 4.01586 19.9995 1.27175C13.0337 -1.89454 4.80132 1.06066 1.63503 7.8154C-1.53125 14.5701 1.42395 23.0136 8.17869 26.1798C11.7671 27.8685 15.7778 27.8685 19.3662 26.3909L43.2189 43.0667C42.1635 45.5997 41.5302 48.5549 41.5302 51.5101C41.5302 53.1988 41.7413 54.6764 41.9524 56.3651L27.3875 61.6422C25.4877 59.5314 22.9547 57.8427 19.7884 56.9983C11.5561 54.6764 2.90155 59.5313 0.579606 67.9748C-1.74234 76.2071 3.11263 84.8616 11.5561 87.1835C19.7884 89.5055 28.4429 84.6505 30.7648 76.2071C30.9759 75.3628 31.187 74.5184 31.187 73.6741L47.8628 67.7637C52.2956 72.4076 58.417 75.3628 65.1718 75.3628C65.805 75.3628 66.4383 75.3628 67.0715 75.3628L69.3935 87.1835C64.9607 90.772 62.4277 96.4713 63.0609 102.382C63.9053 112.092 72.5598 119.057 82.2697 118.213C91.9796 117.369 98.9455 108.714 98.1011 99.0044C97.2568 90.3498 90.291 83.8062 81.8475 83.1729L79.3145 70.7189C85.2249 66.4972 89.2355 59.3203 89.2355 51.5101C89.2355 50.2436 89.0244 48.9771 89.0244 47.9216L105.7 36.9452C107.811 38.0006 110.133 38.6339 112.455 38.6339C120.687 38.6339 127.442 31.8791 127.442 23.6468C127.231 15.4145 120.476 8.65974 112.244 8.65974ZM65.3829 66.9193C56.9394 66.9193 50.1847 60.1646 50.1847 51.7212C50.1847 43.2778 56.9394 36.523 65.3829 36.523C73.8263 36.523 80.581 43.2778 80.581 51.7212C80.581 59.9535 73.8263 66.9193 65.3829 66.9193Z" fill="url(#paint0_linear_116_393)"/>
<path d="M65.5936 58.4759C69.3241 58.4759 72.3483 55.4517 72.3483 51.7212C72.3483 47.9906 69.3241 44.9664 65.5936 44.9664C61.8631 44.9664 58.8389 47.9906 58.8389 51.7212C58.8389 55.4517 61.8631 58.4759 65.5936 58.4759Z" fill="url(#paint1_linear_116_393)"/>
<defs>
<linearGradient id="paint0_linear_116_393" x1="4.57982" y1="118.282" x2="122.862" y2="2.20451e-06" gradientUnits="userSpaceOnUse">
<stop stop-color="#3AADE4"/>
<stop offset="1" stop-color="#0581BC"/>
</linearGradient>
<linearGradient id="paint1_linear_116_393" x1="59.3244" y1="58.4759" x2="72.7963" y2="45.9722" gradientUnits="userSpaceOnUse">
<stop stop-color="#3AADE4"/>
<stop offset="1" stop-color="#0581BC"/>
</linearGradient>
</defs>
</svg>
