<svg width="131" height="112" viewBox="0 0 131 112" fill="none" xmlns="http://www.w3.org/2000/svg">
<path d="M82.2318 38.5259L76.4724 47.9941L80.9519 52.565L90.231 46.6881L93.4306 47.9941L95.9904 58.7683H102.39L104.949 47.9941L108.149 46.6881L117.428 52.565L121.908 47.9941L116.148 38.5259C116.71 37.4981 117.141 36.4008 117.428 35.261L127.987 32.6491V26.1192L117.428 23.5073C117.141 22.3675 116.71 21.2702 116.148 20.2424L121.908 10.7742L117.428 6.20332L108.149 12.0801L104.949 10.7742L102.39 0H95.9904L93.4306 10.7742L90.231 12.0801L80.9519 6.20332L76.4724 10.7742L82.2318 20.2424C81.6696 21.2702 81.2395 22.3675 80.9519 23.5073L70.3931 26.1192V32.6491L80.9519 35.261C81.2395 36.4008 81.6696 37.4981 82.2318 38.5259ZM99.19 22.8543C100.456 22.8543 101.693 23.2373 102.745 23.9548C103.798 24.6723 104.618 25.6921 105.102 26.8853C105.587 28.0785 105.713 29.3914 105.466 30.6581C105.219 31.9247 104.61 33.0882 103.715 34.0014C102.82 34.9146 101.68 35.5365 100.438 35.7885C99.1971 36.0404 97.9104 35.9111 96.7411 35.4169C95.5718 34.9227 94.5723 34.0857 93.8692 33.0119C93.166 31.9381 92.7907 30.6756 92.7907 29.3841C92.7907 27.6523 93.4649 25.9915 94.665 24.7669C95.8651 23.5423 97.4928 22.8543 99.19 22.8543Z" fill="#2DA2DB"/>
<path d="M125.427 70.8484C123.649 69.3856 121.595 68.3118 119.394 67.694C117.192 67.0761 114.889 66.9274 112.628 67.257L80.9514 73.1339C80.9681 71.1206 80.579 69.1254 79.8084 67.272C79.0379 65.4186 77.9022 63.7465 76.4719 62.3597L53.7543 39.1788H6.39932C4.70212 39.1788 3.07442 39.8668 1.87432 41.0914C0.674212 42.3159 0 43.9768 0 45.7086V75.0928C0 76.8246 0.674212 78.4855 1.87432 79.7101C3.07442 80.9346 4.70212 81.6226 6.39932 81.6226H16.9582L52.7944 111.333L118.068 99.2531C121.017 98.6656 123.744 97.2425 125.937 95.1468C128.13 93.0511 129.701 90.3676 130.469 87.4035C131.237 84.4393 131.171 81.3144 130.279 78.3866C129.388 75.4587 127.706 72.8463 125.427 70.8484ZM115.828 86.52L55.9941 97.6206L22.3976 69.216V52.2385H48.6349L67.5129 71.5014C67.765 71.7586 67.965 72.064 68.1014 72.4002C68.2378 72.7363 68.3081 73.0965 68.3081 73.4603C68.3081 73.8242 68.2378 74.1844 68.1014 74.5205C67.965 74.8566 67.765 75.162 67.5129 75.4193C67.2607 75.6765 66.9614 75.8806 66.632 76.0198C66.3027 76.159 65.9496 76.2307 65.5931 76.2307C65.2365 76.2307 64.8835 76.159 64.5541 76.0198C64.2247 75.8806 63.9254 75.6765 63.6733 75.4193L52.4744 63.9921C51.2421 63.049 49.7178 62.5912 48.1812 62.7026C46.6447 62.814 45.1991 63.4872 44.1098 64.5987C43.0206 65.7101 42.3608 67.1852 42.2516 68.7531C42.1424 70.3209 42.5911 71.8764 43.5154 73.1339L54.7142 84.561C56.11 86.0615 57.8005 87.2443 59.6752 88.032C61.55 88.8197 63.5666 89.1945 65.5931 89.1319C67.5519 89.1231 69.4967 88.7924 71.3524 88.1524L114.868 80.3166C115.772 80.1874 116.69 80.4215 117.428 80.9696C117.742 81.2558 117.99 81.6088 118.156 82.0036C118.322 82.3985 118.401 82.8257 118.387 83.2551C118.403 84.0189 118.155 84.7639 117.687 85.3605C117.219 85.957 116.561 86.3673 115.828 86.52Z" fill="#2DA2DB"/>
</svg>
